<?xml version="1.0" encoding="utf-8"?>
<!-- Generator: Adobe Illustrator 16.0.4, SVG Export Plug-In . SVG Version: 6.00 Build 0)  -->
<!DOCTYPE svg PUBLIC "-//W3C//DTD SVG 1.1//EN" "http://www.w3.org/Graphics/SVG/1.1/DTD/svg11.dtd">
<svg version="1.1" xmlns="http://www.w3.org/2000/svg" xmlns:xlink="http://www.w3.org/1999/xlink" x="0px" y="0px"
	 width="729.072px" height="103.398px" viewBox="0 0 729.072 103.398" enable-background="new 0 0 729.072 103.398"
	 xml:space="preserve">
<g id="Layer_3">
	<g display="none">
		<text transform="matrix(1 0 0 1 129.3027 83.4009)" display="inline"><tspan x="0" y="0" fill="#4859A7" font-family="'Aileron-Light'" font-size="92.566">Crandell </tspan><tspan x="354.799" y="0" fill="#50B848" font-family="'Aileron-Light'" font-size="92.566">Design</tspan></text>
	</g>
	<g>
		<path fill="#4859A7" d="M188.634,65.815c-2.87,11.015-12.681,18.882-26.287,18.882c-17.586,0-28.508-13.514-28.508-32.951
			c0-19.623,12.403-33.507,29.804-33.507c14.625,0,23.325,8.423,25.454,19.623h-6.016c-1.851-8.33-8.238-14.995-19.623-14.995
			c-13.144,0-23.233,11.2-23.233,28.601c0,17.771,9.441,28.601,22.492,28.601c10.367,0,17.679-6.294,19.808-14.254H188.634z"/>
		<path fill="#4859A7" d="M205.408,37.028c2.222-2.314,5.276-3.702,8.423-3.702c1.019,0,2.037,0.092,2.87,0.37v4.536
			c-8.516-0.648-14.81,4.628-14.81,17.679v27.49h-5.739V34.437h5.739v8.886L205.408,37.028z"/>
		<path fill="#4859A7" d="M248.764,74.515l-2.499,5.184c-3.425,3.425-8.238,4.998-13.606,4.998c-9.071,0-15.55-4.721-15.55-13.606
			c0-11.199,10.645-16.661,28.324-16.661h3.147v-1.759c0-2.221,0-4.073-0.185-6.016c-0.463-5.646-3.888-8.886-10.922-8.886
			c-6.757,0-11.57,3.61-12.311,11.2h-6.016c0.648-9.626,7.96-15.828,18.327-15.828c10.83,0,15.92,4.905,16.661,12.958
			c0.185,2.129,0.185,4.166,0.185,6.479v17.123c0,4.351,0.277,7.868,0.925,13.699h-5.739L248.764,74.515z M248.579,58.873
			c-13.792-1.018-25.176,2.314-25.176,11.755c0,6.202,3.887,9.534,11.015,9.534c8.515,0,14.162-6.479,14.162-15.643V58.873z"/>
		<path fill="#4859A7" d="M273.009,38.602c3.98-3.98,8.33-5.461,13.791-5.461c10.367,0,16.291,5.646,17.216,14.624
			c0.185,2.5,0.185,4.258,0.185,8.238v27.397h-5.739v-26.75c0-2.776,0-4.905-0.185-7.405c-0.648-6.664-4.35-11.385-12.588-11.385
			c-8.146,0-15.272,5.924-15.272,21.197v24.343h-5.739V34.437h5.739v9.441L273.009,38.602z"/>
		<path fill="#4859A7" d="M355.87,83.401h-5.739V74.33l-3.24,5.369c-3.425,3.425-8.238,4.998-13.884,4.998
			c-13.699,0-21.844-10.645-21.844-25.177c0-17.771,10.922-26.379,23.325-26.379c4.813,0,9.534,1.481,12.588,4.443l3.055,5.183
			V15.37h5.739V83.401z M350.131,56.374c0-13.884-8.423-18.604-15.643-18.604c-9.812,0-17.031,7.775-17.031,21.011
			c0,11.755,5.646,21.382,16.383,21.382c8.701,0,16.291-5.276,16.291-20.086V56.374z"/>
		<path fill="#4859A7" d="M406.263,67.944c-2.313,11.385-11.292,16.753-21.104,16.753c-12.218,0-21.752-8.516-21.752-25.731
			c0-15.735,9.812-25.824,22.678-25.824c13.698,0,20.826,10.922,20.826,24.436c0,0.648,0,1.573-0.186,3.055h-37.116
			c0.647,14.439,7.96,19.53,15.92,19.53c6.85,0,12.959-4.166,14.717-12.218H406.263z M401.079,56.096
			c-0.74-12.588-6.941-18.327-15.18-18.327c-8.145,0-15.457,6.016-16.29,18.327H401.079z"/>
		<path fill="#4859A7" d="M420.148,70.443c0,2.129,0,3.795,0.093,5.275c0.186,3.147,1.573,3.98,5.739,3.518v4.258
			c-1.481,0.277-3.055,0.277-4.536,0.277c-3.795,0-6.664-1.296-6.941-6.571c-0.093-1.666-0.093-3.61-0.093-6.572V15.37h5.738V70.443
			z"/>
		<path fill="#4859A7" d="M437.143,70.443c0,2.129,0,3.795,0.093,5.275c0.186,3.147,1.573,3.98,5.739,3.518v4.258
			c-1.481,0.277-3.055,0.277-4.536,0.277c-3.795,0-6.664-1.296-6.941-6.571c-0.093-1.666-0.093-3.61-0.093-6.572V15.37h5.738V70.443
			z"/>
		<path fill="#50B848" d="M492.312,19.535c3.332,0,4.812,0,7.682,0.278c12.959,1.481,25.27,10.737,25.27,31.1
			c0,20.178-12.589,30.545-25.084,32.118c-3.239,0.37-4.906,0.37-8.146,0.37h-18.697V19.535H492.312z M491.756,78.587
			c3.146,0,5.368,0,7.867-0.37c10.552-1.573,19.345-10.736,19.345-27.305c0-16.383-8.978-24.806-19.529-26.287
			c-2.037-0.278-4.073-0.278-7.405-0.278h-12.958v54.24H491.756z"/>
		<path fill="#50B848" d="M573.286,67.944c-2.313,11.385-11.292,16.753-21.104,16.753c-12.218,0-21.752-8.516-21.752-25.731
			c0-15.735,9.812-25.824,22.678-25.824c13.698,0,20.826,10.922,20.826,24.436c0,0.648,0,1.573-0.186,3.055h-37.116
			c0.647,14.439,7.96,19.53,15.92,19.53c6.85,0,12.959-4.166,14.717-12.218H573.286z M568.103,56.096
			c-0.74-12.588-6.941-18.327-15.18-18.327c-8.145,0-15.457,6.016-16.29,18.327H568.103z"/>
		<path fill="#50B848" d="M583.784,68.961c1.388,8.33,6.664,11.2,13.235,11.2c6.202,0,11.293-2.87,11.293-8.516
			c0-5.461-3.518-8.146-13.052-10.459c-8.423-2.222-15.364-5.646-15.364-14.069c0-8.423,6.664-13.977,16.29-13.977
			c10.645,0,16.383,6.386,17.494,14.995h-6.017c-1.389-6.757-5.368-10.367-11.94-10.367c-5.924,0-9.903,3.332-9.903,8.701
			c0,5.646,4.628,7.867,11.662,9.626c11.292,2.777,16.661,6.849,16.661,15.087c0,8.7-7.405,13.514-17.494,13.514
			c-9.719,0-17.401-4.628-18.789-15.735H583.784z"/>
		<path fill="#50B848" d="M628.289,23.885c0,2.129-1.759,3.888-3.888,3.888c-2.221,0-3.888-1.759-3.888-3.888
			c0-2.221,1.667-3.887,3.888-3.887C626.53,19.998,628.289,21.664,628.289,23.885z M621.532,83.401V34.437h5.738v48.964H621.532z"/>
		<path fill="#50B848" d="M679.077,70.998c0,4.813,0,8.608-0.093,11.478c-0.463,13.051-8.238,20.733-21.474,20.733
			c-10.922,0-18.604-4.165-21.382-15.827h5.924c2.592,8.33,8.053,11.292,15.828,11.292c9.812,0,14.994-6.201,15.365-15.92
			c0.092-2.685,0.092-4.629,0.092-7.22V74.33l-3.239,5.369c-3.425,3.425-8.238,4.998-13.884,4.998
			c-13.699,0-21.845-10.645-21.845-25.177c0-17.771,10.923-26.379,23.325-26.379c4.813,0,9.534,1.481,12.589,4.443l3.054,5.183
			v-8.423h5.739V70.998z M673.338,56.374c0-13.884-8.423-18.604-15.643-18.604c-9.812,0-17.03,7.775-17.03,21.011
			c0,11.755,5.646,21.382,16.383,21.382c8.7,0,16.29-5.276,16.29-20.086V56.374z"/>
		<path fill="#50B848" d="M697.879,38.602c3.98-3.98,8.331-5.461,13.792-5.461c10.366,0,16.29,5.646,17.216,14.624
			c0.186,2.5,0.186,4.258,0.186,8.238v27.397h-5.739v-26.75c0-2.776,0-4.905-0.185-7.405c-0.648-6.664-4.351-11.385-12.589-11.385
			c-8.145,0-15.272,5.924-15.272,21.197v24.343h-5.738V34.437h5.738v9.441L697.879,38.602z"/>
	</g>
	<g id="Layer_2" display="none">
		
			<text transform="matrix(1 0 0 1 -6.7188 96.6265)" display="inline" fill="#666766" font-family="'Aileron-Light'" font-size="28.1434">By Matt Crandell</text>
	</g>
	<g display="none">
		<text transform="matrix(1 0 0 1 95.5854 -47.3735)" display="inline"><tspan x="0" y="0" fill="#4859A7" font-family="'Aileron-Light'" font-size="278.3212" letter-spacing="-27">&lt;</tspan><tspan x="128.303" y="0" fill="#4859A7" font-family="'Aileron-Heavy'" font-size="201.7828" letter-spacing="-20">5</tspan><tspan x="237.669" y="0" fill="#50B848" font-family="'Aileron-Heavy'" font-size="201.7828" letter-spacing="-30">D</tspan><tspan x="356.519" y="0" fill="#50B848" font-family="'Aileron-Light'" font-size="278.3212">&gt;</tspan></text>
	</g>
</g>
<g id="Layer_5" display="none">
	<g display="inline">
		<path fill="#4859A8" d="M69.601,89.195c-10.077,0-19.551-3.926-26.676-11.051s-11.049-16.6-11.049-26.676
			c0-10.077,3.924-19.551,11.049-26.676c7.125-7.126,16.599-11.05,26.676-11.05s19.551,3.924,26.676,11.05
			c7.125,7.125,11.049,16.599,11.049,26.676c0,10.076-3.924,19.551-11.049,26.676S79.678,89.195,69.601,89.195z M69.601,14.392
			c-9.903,0-19.214,3.857-26.217,10.859c-7.003,7.003-10.859,16.314-10.859,26.217c0,9.904,3.856,19.215,10.859,26.217
			c7.003,7.004,16.314,10.859,26.217,10.859c9.903,0,19.214-3.855,26.217-10.859c7.002-7.002,10.859-16.312,10.859-26.217
			c0-9.904-3.856-19.215-10.859-26.217C88.814,18.249,79.504,14.392,69.601,14.392z"/>
	</g>
	<g display="inline">
		<path fill-rule="evenodd" clip-rule="evenodd" fill="#50B848" d="M44.65,56.587c-0.974,0.217-1.889,0.457-2.817,0.617
			c-2.132,0.373-4.078-1.869-3.231-3.844c0.535-1.249,1.292-2.449,2.158-3.5c4.739-5.75,10.648-9.938,17.5-12.814
			c6.25-2.622,12.71-4.559,19.378-5.767c2.218-0.402,4.468-0.405,6.703-0.014c3.326,0.583,5.93,2.35,8.098,4.876
			c1.251,1.458,1.53,3.059,0.67,4.732c-0.547,1.065-1.379,1.983-2.056,2.985c-0.197,0.293-0.4,0.641-0.432,0.978
			c-0.201,2.192-0.17,4.329,0.738,6.439c0.578,1.341,0.81,2.85,1.066,4.307c0.147,0.838,0.717,1.014,1.325,1.307
			c1.478,0.715,2.964,1.426,4.377,2.254c0.708,0.416,1.317,1.041,1.875,1.658c1.008,1.117,1.09,2.391,0.09,3.518
			c-0.758,0.857-1.666,1.645-2.646,2.229c-3.822,2.281-8.021,3.602-12.342,4.547c-5.868,1.283-11.742,0.936-17.67,0.291
			c-7.207-0.779-13.088-4.17-18.557-8.574c-0.546-0.441-1.053-0.928-1.589-1.381c-0.164-0.139-0.361-0.34-0.541-0.338
			c-1.148,0.018-1.203-0.816-1.355-1.623c-0.155-0.82-0.366-1.631-0.561-2.443C44.803,56.898,44.732,56.779,44.65,56.587z"/>
		<ellipse display="none" fill="#4859A8" cx="82.478" cy="43.414" rx="4.908" ry="6.544"/>
		<g id="fJK1ap_1_" display="none">
			<g display="inline">
				<path fill-rule="evenodd" clip-rule="evenodd" fill="#4859A8" d="M78.941,43.748c0.023-0.467,0.086-0.918,0.198-1.36
					c0.11-0.438,0.262-0.85,0.452-1.238c-0.007-0.011-0.011-0.022-0.019-0.028c-0.07-0.06-0.103-0.149-0.122-0.265
					c-0.025-0.16-0.104-0.268-0.197-0.354c-0.184-0.171-0.369-0.338-0.554-0.507c-0.08-0.072-0.128-0.177-0.143-0.312
					c-0.033-0.304,0.155-0.563,0.369-0.497c0.074,0.024,0.15,0.087,0.204,0.161c0.104,0.141,0.191,0.304,0.289,0.455
					c0.056,0.085,0.115,0.164,0.174,0.242c0.077,0.102,0.169,0.152,0.277,0.177c0.069,0.017,0.131,0.077,0.208,0.124
					c0.485-0.653,1.062-1.099,1.717-1.313c0.004-0.008,0.009-0.015,0.009-0.019c-0.018-0.13,0.017-0.241,0.064-0.357
					c0.057-0.142,0.053-0.299,0.037-0.451c-0.035-0.313-0.074-0.625-0.11-0.939c-0.028-0.243,0.082-0.494,0.243-0.554
					c0.16-0.06,0.328,0.08,0.351,0.33c0.017,0.199-0.004,0.408-0.01,0.612c-0.005,0.21-0.012,0.421-0.016,0.632
					c-0.002,0.11,0.022,0.209,0.07,0.292c0.054,0.093,0.08,0.2,0.068,0.335c0.668-0.004,1.27,0.244,1.816,0.751
					c0.046-0.152,0.142-0.183,0.232-0.232c0.1-0.055,0.173-0.164,0.234-0.289c0.134-0.276,0.267-0.554,0.401-0.83
					c0.072-0.148,0.173-0.228,0.297-0.228c0.192,0,0.314,0.243,0.252,0.518c-0.021,0.097-0.065,0.196-0.116,0.27
					c-0.108,0.156-0.228,0.294-0.341,0.442c-0.061,0.08-0.119,0.163-0.176,0.248c-0.088,0.132-0.142,0.284-0.167,0.462
					c-0.013,0.087-0.059,0.169-0.094,0.265c0.428,0.644,0.703,1.428,0.812,2.355c0.107-0.07,0.181,0.025,0.266,0.069
					c0.118,0.061,0.241,0.03,0.363-0.013c0.201-0.069,0.401-0.135,0.602-0.201c0.033-0.01,0.069-0.016,0.104-0.012
					c0.165,0.017,0.283,0.19,0.28,0.405c-0.004,0.211-0.131,0.423-0.292,0.448c-0.148,0.022-0.297,0.011-0.446,0.012
					c-0.099,0.001-0.198-0.003-0.297,0.002c-0.138,0.006-0.263,0.07-0.377,0.196c-0.043,0.047-0.104,0.059-0.168,0.092
					c-0.04,0.934-0.259,1.814-0.653,2.619c0.001,0.01,0.001,0.018,0.004,0.02c0.074,0.061,0.102,0.16,0.122,0.276
					c0.026,0.152,0.103,0.257,0.192,0.34c0.185,0.172,0.372,0.342,0.559,0.512c0.08,0.072,0.128,0.178,0.142,0.312
					c0.016,0.155-0.016,0.294-0.107,0.401c-0.099,0.115-0.211,0.14-0.318,0.073c-0.071-0.045-0.136-0.119-0.19-0.197
					c-0.086-0.123-0.161-0.264-0.244-0.394c-0.053-0.083-0.11-0.16-0.168-0.238c-0.083-0.11-0.183-0.167-0.3-0.19
					c-0.062-0.012-0.116-0.07-0.175-0.107c-0.12,0.138-0.245,0.292-0.378,0.43c-0.393,0.411-0.825,0.695-1.292,0.85
					c-0.048,0.016-0.065,0.041-0.054,0.106c0.014,0.079-0.004,0.147-0.036,0.218c-0.09,0.194-0.081,0.4-0.056,0.606
					c0.034,0.277,0.067,0.554,0.099,0.832c0.007,0.056,0.01,0.116,0.003,0.173c-0.023,0.235-0.157,0.414-0.309,0.421
					c-0.151,0.007-0.292-0.166-0.294-0.397c-0.002-0.24,0.023-0.483,0.031-0.725c0.005-0.168,0.011-0.338-0.001-0.502
					c-0.007-0.098-0.044-0.191-0.078-0.278c-0.031-0.079-0.066-0.15-0.058-0.25c0.004-0.047-0.009-0.07-0.046-0.07
					c-0.655,0-1.246-0.259-1.776-0.754c-0.003-0.003-0.007-0.003-0.029-0.024c-0.01,0.028-0.016,0.064-0.031,0.083
					c-0.036,0.042-0.074,0.09-0.118,0.108c-0.131,0.057-0.23,0.174-0.307,0.331c-0.134,0.273-0.265,0.548-0.398,0.822
					c-0.072,0.149-0.171,0.233-0.293,0.236c-0.216,0.005-0.34-0.292-0.243-0.588c0.029-0.089,0.076-0.172,0.126-0.242
					c0.083-0.12,0.176-0.224,0.263-0.338c0.08-0.105,0.159-0.213,0.235-0.324c0.083-0.121,0.131-0.264,0.155-0.428
					c0.014-0.095,0.06-0.183,0.097-0.292c-0.419-0.643-0.688-1.431-0.791-2.355c-0.104,0.062-0.182-0.001-0.265-0.057
					c-0.095-0.062-0.2-0.053-0.304-0.019c-0.229,0.073-0.456,0.151-0.685,0.226c-0.169,0.056-0.343-0.095-0.369-0.319
					c-0.026-0.226,0.091-0.475,0.267-0.516c0.138-0.032,0.279-0.019,0.419-0.025c0.15-0.006,0.301,0,0.451-0.023
					c0.072-0.011,0.149-0.062,0.21-0.122C78.771,43.794,78.847,43.746,78.941,43.748z M85.601,43.168
					c-0.083-2.562-1.624-4.393-3.44-4.101c-1.778,0.287-3.214,2.564-3.138,5.15c0.076,2.57,1.622,4.42,3.433,4.125
					C84.278,48.045,85.684,45.731,85.601,43.168z M82.396,38.698c-0.028-0.082-0.064-0.156-0.081-0.24
					c-0.044-0.217-0.03-0.445-0.015-0.672c0.015-0.217,0.035-0.435,0.034-0.651c-0.002-0.226-0.125-0.366-0.267-0.333
					c-0.129,0.03-0.232,0.233-0.211,0.427c0.023,0.224,0.057,0.445,0.079,0.669c0.018,0.185,0.035,0.372,0.035,0.559
					c0,0.104-0.037,0.212-0.057,0.318C82.067,38.751,82.23,38.725,82.396,38.698z M78.774,43.923
					c-0.072,0.049-0.139,0.124-0.21,0.139c-0.147,0.033-0.297,0.043-0.445,0.049c-0.149,0.007-0.297-0.017-0.446-0.001
					c-0.167,0.018-0.276,0.206-0.26,0.413c0.013,0.177,0.149,0.303,0.292,0.26c0.16-0.048,0.319-0.11,0.479-0.158
					c0.127-0.038,0.257-0.075,0.385-0.087c0.077-0.006,0.152,0.038,0.228,0.057C78.79,44.378,78.782,44.152,78.774,43.923z
					 M79.727,47.393c-0.031,0.311-0.192,0.516-0.35,0.724c-0.034,0.045-0.071,0.086-0.106,0.131
					c-0.076,0.097-0.155,0.191-0.227,0.295c-0.04,0.057-0.076,0.126-0.1,0.198c-0.047,0.138-0.022,0.311,0.048,0.392
					c0.073,0.086,0.188,0.088,0.284-0.004c0.036-0.035,0.068-0.082,0.093-0.133c0.133-0.269,0.259-0.545,0.396-0.81
					c0.056-0.106,0.131-0.196,0.204-0.283c0.035-0.042,0.084-0.061,0.118-0.083C79.968,47.679,79.849,47.537,79.727,47.393z
					 M82.224,48.715c0.016,0.036,0.031,0.066,0.043,0.099c0.018,0.05,0.046,0.099,0.049,0.152c0.009,0.205,0.014,0.412,0.011,0.619
					c-0.004,0.241-0.028,0.482-0.028,0.723c0,0.179,0.108,0.311,0.221,0.306c0.148-0.007,0.264-0.189,0.248-0.411
					c-0.015-0.208-0.045-0.412-0.066-0.618c-0.019-0.188-0.046-0.375-0.048-0.565c-0.001-0.125,0.035-0.255,0.056-0.384
					C82.558,48.66,82.395,48.687,82.224,48.715z M79.526,40.857c0.108-0.18,0.217-0.361,0.326-0.543
					c-0.221-0.021-0.357-0.248-0.498-0.465c-0.029-0.043-0.054-0.092-0.081-0.136c-0.071-0.111-0.141-0.225-0.218-0.329
					c-0.034-0.045-0.08-0.079-0.125-0.098c-0.18-0.072-0.341,0.14-0.304,0.398c0.015,0.104,0.058,0.183,0.122,0.239
					c0.16,0.145,0.317,0.296,0.48,0.438C79.367,40.484,79.485,40.63,79.526,40.857z M84.756,47.089
					c0.243,0.104,0.317,0.172,0.497,0.468c0.069,0.114,0.135,0.233,0.207,0.343c0.049,0.072,0.101,0.145,0.162,0.192
					c0.155,0.121,0.347-0.016,0.363-0.254c0.01-0.149-0.031-0.266-0.117-0.345c-0.177-0.163-0.358-0.318-0.531-0.489
					c-0.074-0.073-0.138-0.17-0.198-0.267c-0.032-0.053-0.045-0.129-0.062-0.18C84.971,46.731,84.864,46.911,84.756,47.089z
					 M84.874,39.977c0.044-0.359,0.246-0.583,0.435-0.819c0.071-0.091,0.147-0.177,0.215-0.272c0.046-0.066,0.092-0.141,0.125-0.221
					c0.062-0.156,0.037-0.337-0.05-0.427c-0.083-0.086-0.215-0.068-0.306,0.047c-0.026,0.034-0.049,0.075-0.07,0.116
					c-0.109,0.223-0.219,0.446-0.325,0.672c-0.1,0.215-0.21,0.408-0.389,0.489C84.632,39.701,84.752,39.839,84.874,39.977z
					 M85.833,43.45c0.071-0.047,0.14-0.106,0.213-0.14c0.153-0.07,0.309-0.055,0.464-0.052c0.156,0.004,0.313,0.006,0.47-0.014
					c0.111-0.013,0.209-0.172,0.215-0.315c0.009-0.171-0.057-0.302-0.18-0.335c-0.042-0.012-0.09-0.009-0.134,0.004
					c-0.165,0.05-0.328,0.11-0.492,0.16c-0.106,0.032-0.214,0.07-0.32,0.076c-0.088,0.005-0.173-0.033-0.259-0.053
					C85.817,42.995,85.825,43.222,85.833,43.45z M79.776,47.226c-0.029,0.026-0.02,0.072,0.02,0.121
					c0.085,0.102,0.166,0.208,0.25,0.308c0.038,0.045,0.08,0.082,0.124,0.125c0.02-0.038,0.033-0.064,0.047-0.09
					c-0.006,0.007-0.013,0.014-0.02,0.02C80.06,47.552,79.923,47.394,79.776,47.226z M79.961,40.392
					c-0.006-0.043-0.037-0.049-0.075,0.014c-0.098,0.163-0.199,0.323-0.296,0.487c-0.047,0.081-0.043,0.091,0.001,0.118
					C79.718,40.8,79.84,40.596,79.961,40.392z M84.86,40.093c-0.148-0.176-0.283-0.338-0.422-0.505
					c-0.026,0.049-0.04,0.076-0.054,0.102c0.008-0.008,0.016-0.016,0.023-0.023c0.136,0.159,0.272,0.317,0.408,0.476
					c-0.006,0.013-0.011,0.026-0.017,0.04C84.815,40.158,84.832,40.134,84.86,40.093z M84.998,46.377
					c0.005,0.009,0.01,0.019,0.015,0.028c-0.123,0.206-0.246,0.411-0.369,0.615c-0.008-0.005-0.016-0.012-0.023-0.018
					c0.018,0.019,0.035,0.038,0.062,0.068c0.127-0.209,0.252-0.413,0.38-0.623C85.033,46.415,85.016,46.396,84.998,46.377z
					 M78.935,44.633c-0.008-0.262-0.017-0.518-0.025-0.775c-0.068-0.006-0.08,0.005-0.078,0.113
					c0.003,0.198,0.012,0.396,0.018,0.592C78.853,44.639,78.878,44.666,78.935,44.633z M82.145,38.817L82.145,38.817
					c-0.077,0.012-0.155,0.021-0.232,0.041c-0.015,0.004-0.028,0.046-0.042,0.07c0.017,0.014,0.034,0.042,0.051,0.039
					c0.152-0.021,0.304-0.045,0.457-0.073c0.018-0.003,0.037-0.036,0.054-0.054c-0.018-0.02-0.036-0.058-0.055-0.057
					C82.301,38.788,82.223,38.805,82.145,38.817z M82.478,48.595C82.478,48.596,82.478,48.596,82.478,48.595
					c0.073-0.011,0.147-0.019,0.22-0.038c0.021-0.005,0.054-0.037,0.056-0.061c0.007-0.061-0.027-0.058-0.06-0.053
					c-0.146,0.025-0.293,0.049-0.439,0.07c-0.034,0.005-0.067,0.016-0.058,0.072c0.004,0.022,0.04,0.045,0.062,0.043
					C82.331,48.624,82.404,48.607,82.478,48.595z M85.766,43.109L85.766,43.109c-0.003-0.104-0.003-0.208-0.011-0.31
					c-0.003-0.029-0.025-0.073-0.041-0.073c-0.043-0.002-0.039,0.047-0.037,0.093c0.009,0.209,0.015,0.418,0.026,0.627
					c0.001,0.027,0.019,0.051,0.029,0.076c0.015-0.028,0.041-0.058,0.042-0.085C85.776,43.327,85.769,43.218,85.766,43.109z"/>
				<path fill-rule="evenodd" clip-rule="evenodd" fill="#4859A8" d="M85.601,43.168c0.083,2.563-1.323,4.877-3.145,5.174
					c-1.811,0.295-3.357-1.554-3.433-4.125c-0.076-2.586,1.36-4.864,3.138-5.15C83.977,38.775,85.517,40.606,85.601,43.168z
					 M82.428,47.129c1.348-0.22,2.395-1.94,2.334-3.834c-0.061-1.896-1.208-3.267-2.549-3.052c-1.319,0.21-2.403,1.883-2.338,3.846
					C79.942,46.063,81.129,47.347,82.428,47.129z"/>
				<path fill-rule="evenodd" clip-rule="evenodd" fill="#4859A8" d="M82.396,38.698c-0.166,0.027-0.329,0.054-0.483,0.079
					c0.02-0.106,0.056-0.214,0.057-0.318c0-0.188-0.017-0.374-0.035-0.559c-0.022-0.224-0.055-0.445-0.079-0.669
					c-0.021-0.194,0.082-0.397,0.211-0.427c0.142-0.033,0.264,0.106,0.267,0.333c0.001,0.216-0.019,0.434-0.034,0.651
					c-0.015,0.227-0.029,0.455,0.015,0.672C82.332,38.542,82.368,38.616,82.396,38.698z"/>
				<path fill-rule="evenodd" clip-rule="evenodd" fill="#4859A8" d="M78.774,43.923c0.008,0.229,0.015,0.455,0.023,0.672
					c-0.076-0.02-0.151-0.063-0.228-0.057c-0.128,0.012-0.257,0.049-0.385,0.087c-0.16,0.047-0.319,0.11-0.479,0.158
					c-0.143,0.043-0.279-0.083-0.292-0.26c-0.016-0.207,0.094-0.395,0.26-0.413c0.148-0.016,0.297,0.008,0.446,0.001
					c0.147-0.006,0.298-0.017,0.445-0.049C78.636,44.047,78.703,43.973,78.774,43.923z"/>
				<path fill-rule="evenodd" clip-rule="evenodd" fill="#4859A8" d="M79.727,47.393c0.123,0.145,0.242,0.286,0.36,0.426
					c-0.034,0.023-0.083,0.041-0.118,0.083c-0.072,0.087-0.148,0.177-0.204,0.283c-0.138,0.265-0.263,0.541-0.396,0.81
					c-0.024,0.051-0.057,0.098-0.093,0.133c-0.096,0.093-0.21,0.091-0.284,0.004c-0.07-0.082-0.095-0.254-0.048-0.392
					c0.024-0.072,0.06-0.141,0.1-0.198c0.072-0.104,0.15-0.198,0.227-0.295c0.035-0.045,0.072-0.086,0.106-0.131
					C79.535,47.908,79.695,47.704,79.727,47.393z"/>
				<path fill-rule="evenodd" clip-rule="evenodd" fill="#4859A8" d="M82.224,48.715c0.171-0.028,0.334-0.055,0.485-0.08
					c-0.021,0.129-0.057,0.259-0.056,0.384c0.002,0.19,0.029,0.377,0.048,0.565c0.021,0.206,0.051,0.409,0.066,0.618
					c0.016,0.222-0.1,0.404-0.248,0.411c-0.112,0.005-0.221-0.126-0.221-0.306c0-0.24,0.023-0.482,0.028-0.723
					c0.003-0.207-0.002-0.414-0.011-0.619c-0.002-0.053-0.031-0.103-0.049-0.152C82.255,48.781,82.24,48.751,82.224,48.715z"/>
				<path fill-rule="evenodd" clip-rule="evenodd" fill="#4859A8" d="M79.526,40.857c-0.041-0.227-0.159-0.373-0.299-0.496
					c-0.163-0.142-0.32-0.292-0.48-0.438c-0.063-0.057-0.106-0.135-0.122-0.239c-0.037-0.258,0.124-0.47,0.304-0.398
					c0.045,0.019,0.091,0.053,0.125,0.098c0.077,0.104,0.147,0.218,0.218,0.329c0.027,0.043,0.052,0.092,0.081,0.136
					c0.141,0.218,0.277,0.445,0.498,0.465C79.743,40.496,79.634,40.677,79.526,40.857z"/>
				<path fill-rule="evenodd" clip-rule="evenodd" fill="#4859A8" d="M84.756,47.089c0.108-0.179,0.215-0.358,0.322-0.534
					c0.017,0.051,0.03,0.127,0.062,0.18c0.06,0.097,0.124,0.194,0.198,0.267c0.172,0.171,0.354,0.327,0.531,0.489
					c0.085,0.079,0.127,0.196,0.117,0.345c-0.017,0.238-0.208,0.375-0.363,0.254c-0.061-0.047-0.113-0.12-0.162-0.192
					c-0.072-0.109-0.138-0.229-0.207-0.343C85.073,47.262,84.999,47.193,84.756,47.089z"/>
				<path fill-rule="evenodd" clip-rule="evenodd" fill="#4859A8" d="M84.874,39.977c-0.122-0.138-0.242-0.275-0.366-0.417
					c0.179-0.081,0.29-0.274,0.389-0.489c0.106-0.227,0.216-0.449,0.325-0.672c0.021-0.041,0.043-0.082,0.07-0.116
					c0.09-0.115,0.223-0.133,0.306-0.047c0.087,0.09,0.113,0.271,0.05,0.427c-0.032,0.081-0.078,0.155-0.125,0.221
					c-0.068,0.096-0.144,0.182-0.215,0.272C85.12,39.394,84.918,39.617,84.874,39.977z"/>
				<path fill-rule="evenodd" clip-rule="evenodd" fill="#4859A8" d="M85.833,43.45c-0.008-0.228-0.015-0.455-0.022-0.667
					c0.086,0.02,0.171,0.058,0.259,0.053c0.106-0.006,0.214-0.044,0.32-0.076c0.165-0.05,0.328-0.11,0.492-0.16
					c0.044-0.013,0.092-0.017,0.134-0.004c0.123,0.033,0.189,0.164,0.18,0.335c-0.006,0.143-0.104,0.302-0.215,0.315
					c-0.157,0.02-0.314,0.018-0.47,0.014c-0.155-0.003-0.311-0.018-0.464,0.052C85.973,43.344,85.904,43.402,85.833,43.45z"/>
				<path fill-rule="evenodd" clip-rule="evenodd" fill="#4859A8" d="M79.776,47.226c0.146,0.168,0.284,0.326,0.421,0.484
					c0.007-0.006,0.014-0.013,0.02-0.02c-0.014,0.026-0.027,0.053-0.047,0.09c-0.044-0.043-0.086-0.08-0.124-0.125
					c-0.084-0.101-0.166-0.207-0.25-0.308C79.757,47.298,79.748,47.252,79.776,47.226z"/>
				<path fill-rule="evenodd" clip-rule="evenodd" fill="#4859A8" d="M79.961,40.392c-0.122,0.204-0.244,0.408-0.37,0.619
					c-0.044-0.027-0.048-0.038-0.001-0.118c0.097-0.165,0.198-0.324,0.296-0.487C79.924,40.343,79.955,40.349,79.961,40.392z"/>
				<path fill-rule="evenodd" clip-rule="evenodd" fill="#4859A8" d="M84.86,40.093c-0.029,0.041-0.045,0.065-0.062,0.09
					c0.006-0.013,0.011-0.026,0.017-0.04c-0.136-0.159-0.272-0.317-0.408-0.476c-0.007,0.007-0.015,0.015-0.023,0.023
					c0.014-0.026,0.028-0.053,0.054-0.102C84.578,39.755,84.712,39.917,84.86,40.093z"/>
				<path fill-rule="evenodd" clip-rule="evenodd" fill="#4859A8" d="M84.998,46.377c0.018,0.019,0.035,0.038,0.065,0.071
					c-0.127,0.21-0.252,0.414-0.38,0.623c-0.028-0.03-0.045-0.049-0.062-0.068c0.007,0.006,0.015,0.013,0.023,0.018
					c0.124-0.204,0.246-0.409,0.369-0.615C85.007,46.396,85.002,46.386,84.998,46.377z"/>
				<path fill-rule="evenodd" clip-rule="evenodd" fill="#4859A8" d="M78.935,44.633c-0.057,0.033-0.082,0.006-0.084-0.069
					c-0.006-0.197-0.015-0.394-0.018-0.592c-0.002-0.108,0.009-0.119,0.078-0.113C78.918,44.115,78.926,44.371,78.935,44.633z"/>
				<path fill-rule="evenodd" clip-rule="evenodd" fill="#4859A8" d="M82.145,38.817c0.078-0.012,0.156-0.029,0.232-0.034
					c0.019-0.001,0.037,0.037,0.055,0.057c-0.018,0.019-0.036,0.051-0.054,0.054c-0.153,0.028-0.305,0.052-0.457,0.073
					c-0.017,0.002-0.034-0.025-0.051-0.039c0.015-0.024,0.028-0.066,0.042-0.07C81.99,38.839,82.068,38.83,82.145,38.817
					L82.145,38.817z"/>
				<path fill-rule="evenodd" clip-rule="evenodd" fill="#4859A8" d="M82.478,48.595c-0.073,0.012-0.146,0.028-0.22,0.034
					c-0.022,0.001-0.058-0.021-0.062-0.043c-0.009-0.056,0.024-0.067,0.058-0.072c0.146-0.021,0.293-0.045,0.439-0.07
					c0.033-0.005,0.067-0.008,0.06,0.053c-0.002,0.024-0.035,0.056-0.056,0.061C82.625,48.577,82.551,48.584,82.478,48.595
					C82.478,48.596,82.478,48.596,82.478,48.595z"/>
				<path fill-rule="evenodd" clip-rule="evenodd" fill="#4859A8" d="M85.766,43.109c0.003,0.109,0.01,0.218,0.008,0.329
					c-0.001,0.027-0.027,0.057-0.042,0.085c-0.01-0.025-0.028-0.049-0.029-0.076c-0.011-0.209-0.017-0.418-0.026-0.627
					c-0.002-0.046-0.007-0.095,0.037-0.093c0.016,0,0.038,0.044,0.041,0.073C85.762,42.901,85.762,43.005,85.766,43.109
					L85.766,43.109z"/>
				<path fill-rule="evenodd" clip-rule="evenodd" fill="#4859A8" d="M82.428,47.129c-1.299,0.218-2.486-1.066-2.553-3.041
					c-0.065-1.962,1.019-3.635,2.338-3.846c1.341-0.214,2.488,1.156,2.549,3.052C84.823,45.189,83.776,46.909,82.428,47.129z
					 M83.889,46.094c0.021-0.024,0.043-0.045,0.062-0.073c0.652-0.967,0.906-2.081,0.705-3.321
					c-0.291-1.799-1.546-2.809-2.833-2.285c-0.926,0.377-1.527,1.254-1.813,2.555c-0.106,0.483-0.125,1.075-0.067,1.418
					c-0.005-0.152-0.016-0.316-0.015-0.48c0.002-0.167,0.009-0.337,0.028-0.504c0.223-1.979,1.583-3.38,2.94-3.032
					c1.111,0.285,1.876,1.687,1.8,3.313c-0.042,0.887-0.298,1.658-0.749,2.316c-0.021,0.029-0.037,0.062-0.056,0.093
					c-0.079,0.09-0.16,0.181-0.239,0.271c0.004,0.006,0.008,0.013,0.012,0.019C83.739,46.289,83.814,46.191,83.889,46.094z
					 M84.604,43.814c-0.063-0.029-0.119-0.041-0.163-0.078c-0.08-0.068-0.164-0.083-0.258-0.065c-0.306,0.06-0.612,0.123-0.919,0.17
					c-0.097,0.015-0.159,0.053-0.171,0.2c-0.001,0.012-0.005,0.025-0.009,0.035c-0.022,0.052-0.015,0.085,0.016,0.124
					c0.246,0.303,0.491,0.606,0.733,0.914c0.063,0.082,0.136,0.123,0.22,0.14c0.059,0.012,0.116,0.035,0.181,0.054
					C84.442,44.849,84.567,44.34,84.604,43.814z M80.054,44.562c0.072,0.515,0.231,0.978,0.465,1.359
					c0.06-0.045,0.105-0.096,0.154-0.113c0.109-0.038,0.187-0.133,0.257-0.253c0.184-0.318,0.365-0.64,0.558-0.947
					c0.086-0.137,0.123-0.249,0.044-0.398c-0.021-0.041-0.036-0.06-0.073-0.055c-0.329,0.045-0.657,0.09-0.985,0.127
					c-0.109,0.013-0.202,0.07-0.289,0.167C80.15,44.489,80.106,44.517,80.054,44.562z M83.751,46.105
					c-0.024-0.07-0.053-0.127-0.061-0.19c-0.019-0.146-0.072-0.25-0.149-0.338c-0.232-0.263-0.464-0.523-0.691-0.795
					c-0.07-0.083-0.126-0.117-0.215-0.028c-0.039,0.04-0.059,0.066-0.057,0.134c0.011,0.467,0.019,0.934,0.024,1.401
					c0.001,0.118,0.026,0.218,0.07,0.311c0.036,0.076,0.064,0.158,0.101,0.25C83.131,46.716,83.464,46.461,83.751,46.105z
					 M81.858,40.553c-0.358,0.137-0.691,0.387-0.977,0.74c0.021,0.066,0.05,0.117,0.056,0.176c0.017,0.165,0.084,0.274,0.169,0.37
					c0.224,0.253,0.448,0.504,0.666,0.766c0.072,0.086,0.13,0.121,0.221,0.028c0.04-0.041,0.057-0.067,0.055-0.135
					c-0.011-0.463-0.02-0.927-0.025-1.391c-0.001-0.134-0.028-0.248-0.081-0.351C81.913,40.696,81.889,40.628,81.858,40.553z
					 M80.024,43.548c0.052,0.024,0.098,0.033,0.133,0.064c0.089,0.083,0.187,0.095,0.294,0.073c0.3-0.06,0.6-0.12,0.9-0.167
					c0.1-0.016,0.166-0.048,0.188-0.206c0.008-0.059,0.011-0.092-0.021-0.131c-0.241-0.297-0.481-0.594-0.72-0.897
					c-0.07-0.09-0.15-0.13-0.245-0.147c-0.05-0.008-0.099-0.032-0.157-0.051C80.193,42.532,80.067,43.027,80.024,43.548z
					 M83.584,40.864c-0.305-0.255-0.646-0.404-1.007-0.421c-0.027,0.089-0.043,0.16-0.071,0.221c-0.046,0.1-0.065,0.205-0.06,0.317
					c0.022,0.498,0.045,0.996,0.069,1.493c0.001,0.021,0.014,0.05,0.027,0.057c0.046,0.025,0.096,0.042,0.147,0.063
					c0.237-0.377,0.472-0.755,0.712-1.126c0.079-0.124,0.123-0.258,0.139-0.416C83.547,40.996,83.567,40.938,83.584,40.864z
					 M82.045,46.966c0.027-0.097,0.041-0.178,0.071-0.246c0.052-0.115,0.067-0.234,0.061-0.362c-0.021-0.443-0.044-0.886-0.058-1.33
					c-0.003-0.119-0.027-0.179-0.111-0.198c-0.04-0.01-0.063-0.012-0.094,0.037c-0.226,0.363-0.453,0.725-0.684,1.083
					c-0.068,0.106-0.104,0.224-0.122,0.357c-0.012,0.078-0.033,0.154-0.055,0.246C81.35,46.801,81.689,46.944,82.045,46.966z
					 M84.114,41.497c-0.062,0.041-0.111,0.08-0.164,0.102c-0.074,0.031-0.138,0.082-0.188,0.167
					c-0.235,0.401-0.471,0.803-0.706,1.206c-0.011,0.02-0.011,0.06-0.007,0.086c0.004,0.032,0.022,0.058,0.029,0.088
					c0.012,0.05,0.032,0.065,0.071,0.059c0.335-0.046,0.669-0.092,1.005-0.131c0.098-0.012,0.18-0.064,0.259-0.147
					c0.044-0.047,0.095-0.083,0.152-0.132C84.491,42.309,84.336,41.866,84.114,41.497z M83.09,43.579
					c-0.016-0.609-0.372-1.048-0.797-0.985c-0.444,0.066-0.778,0.596-0.762,1.206c0.016,0.617,0.372,1.063,0.794,1
					C82.773,44.733,83.106,44.202,83.09,43.579z M83.729,45.924c0.007,0,0.015,0.002,0.023,0.003
					c0.118-0.197,0.237-0.394,0.362-0.602c-0.212-0.054-0.212-0.053-0.359-0.234c-0.214-0.264-0.426-0.53-0.639-0.796
					c-0.017-0.021-0.034-0.039-0.044-0.051c-0.09,0.146-0.174,0.281-0.261,0.419c0.21,0.241,0.429,0.488,0.645,0.739
					C83.575,45.543,83.719,45.658,83.729,45.924z M81.058,46.372c0.025-0.171,0.049-0.312,0.126-0.432
					c0.209-0.326,0.414-0.655,0.621-0.983c0.031-0.048,0.062-0.097,0.089-0.139c-0.095-0.118-0.186-0.229-0.291-0.358
					c-0.005,0.016-0.012,0.047-0.025,0.071c-0.189,0.325-0.379,0.649-0.567,0.973c-0.093,0.16-0.184,0.321-0.336,0.364
					c-0.003,0-0.006,0.008-0.018,0.026C80.787,46.049,80.917,46.204,81.058,46.372z M82.468,42.461c0-0.008,0.004-0.026,0.003-0.043
					c-0.018-0.367-0.035-0.733-0.053-1.101c-0.012-0.242-0.044-0.484,0.066-0.715c0.001-0.003-0.002-0.011-0.006-0.027
					c-0.17,0.029-0.342,0.057-0.528,0.087c0.023,0.052,0.042,0.084,0.053,0.121c0.021,0.064,0.049,0.13,0.051,0.198
					c0.013,0.365,0.018,0.731,0.026,1.097c0.004,0.148,0.009,0.296,0.015,0.444C82.219,42.501,82.338,42.482,82.468,42.461z
					 M81.555,43.15c0.091-0.145,0.176-0.281,0.262-0.42c-0.01-0.011-0.022-0.03-0.037-0.047c-0.179-0.203-0.362-0.4-0.536-0.612
					c-0.14-0.168-0.325-0.286-0.348-0.62c-0.142,0.205-0.261,0.398-0.381,0.629c0.171-0.006,0.277,0.105,0.375,0.239
					c0.053,0.071,0.109,0.137,0.165,0.205C81.223,42.735,81.39,42.943,81.555,43.15z M83.042,42.936
					c0.007-0.018,0.016-0.053,0.03-0.079c0.173-0.299,0.346-0.598,0.521-0.893c0.109-0.185,0.203-0.401,0.396-0.435
					c0.001-0.009,0.002-0.019,0.003-0.028c-0.13-0.155-0.262-0.31-0.397-0.471c-0.081,0.338-0.081,0.339-0.221,0.564
					c-0.194,0.307-0.388,0.614-0.582,0.92c-0.015,0.024-0.029,0.051-0.038,0.066C82.849,42.699,82.938,42.809,83.042,42.936z
					 M82.521,44.857c-0.114,0.018-0.235,0.039-0.36,0.059c0,0.008-0.003,0.023-0.003,0.038c0.012,0.277,0.026,0.553,0.036,0.83
					c0.009,0.246,0.02,0.492,0.017,0.738c-0.001,0.088-0.043,0.179-0.069,0.281c0.176-0.029,0.351-0.058,0.537-0.088
					c-0.021-0.044-0.037-0.071-0.047-0.103c-0.024-0.075-0.058-0.149-0.063-0.23c-0.013-0.166-0.008-0.335-0.013-0.502
					C82.544,45.538,82.532,45.199,82.521,44.857z M81.451,43.557c-0.021,0.003-0.045,0.007-0.071,0.013
					c-0.323,0.06-0.646,0.12-0.97,0.179c-0.084,0.016-0.164,0.006-0.234-0.058c-0.016-0.015-0.035-0.022-0.06-0.036
					c0.009,0.261,0.017,0.507,0.025,0.766c0.042-0.04,0.071-0.076,0.105-0.097c0.058-0.035,0.118-0.08,0.178-0.088
					c0.303-0.045,0.604-0.08,0.907-0.119c0.045-0.006,0.089-0.015,0.137-0.022C81.462,43.913,81.457,43.744,81.451,43.557z
					 M84.498,43.707c0.006-0.267,0.002-0.513-0.029-0.779c-0.124,0.175-0.262,0.205-0.405,0.221c-0.251,0.028-0.501,0.066-0.752,0.1
					c-0.055,0.007-0.109,0.018-0.164,0.026c0.006,0.174,0.012,0.345,0.018,0.527c0.021-0.003,0.047-0.007,0.072-0.012
					c0.321-0.06,0.642-0.119,0.963-0.179c0.087-0.016,0.168-0.005,0.24,0.062C84.455,43.684,84.471,43.69,84.498,43.707z
					 M83.617,40.93c0.153,0.18,0.296,0.35,0.441,0.521c-0.001-0.008,0.007-0.048-0.003-0.061c-0.127-0.156-0.255-0.311-0.386-0.46
					C83.658,40.917,83.632,40.929,83.617,40.93z M84.539,43.302c0,0,0,0,0.001,0c0.004,0.122,0.007,0.244,0.013,0.365
					c0,0.021,0.016,0.04,0.024,0.06c0.009-0.019,0.025-0.039,0.025-0.057c-0.007-0.243-0.013-0.486-0.023-0.729
					c0-0.019-0.022-0.035-0.033-0.052c-0.006,0.021-0.019,0.044-0.018,0.065C84.531,43.072,84.536,43.187,84.539,43.302z
					 M83.776,46.025c0.015-0.005,0.042-0.001,0.052-0.018c0.118-0.188,0.234-0.38,0.348-0.573c0.01-0.017,0-0.055,0-0.065
					C84.043,45.585,83.914,45.797,83.776,46.025z M80.451,42.066c0.142-0.23,0.269-0.434,0.394-0.639
					c0.008-0.012,0.004-0.037,0.005-0.056c-0.017,0.004-0.04,0-0.048,0.014c-0.118,0.19-0.234,0.381-0.348,0.575
					C80.442,41.977,80.451,42.015,80.451,42.066z M81.032,46.467c0-0.01-0.001-0.019-0.002-0.029
					c-0.134-0.164-0.268-0.327-0.403-0.489c-0.008-0.009-0.025-0.003-0.038-0.005c0.001,0.023-0.003,0.059,0.006,0.07
					c0.126,0.154,0.254,0.307,0.383,0.455C80.988,46.481,81.014,46.468,81.032,46.467z M82.711,46.818
					c-0.003-0.009-0.007-0.019-0.012-0.028c-0.182,0.03-0.366,0.06-0.547,0.089c-0.005,0.001-0.01,0-0.013,0.002
					c-0.009,0.011-0.019,0.022-0.028,0.033c0.008,0.012,0.014,0.028,0.024,0.034c0.011,0.007,0.025,0.007,0.037,0.006
					c0.157-0.025,0.314-0.049,0.471-0.079C82.667,46.871,82.688,46.838,82.711,46.818z M82.209,40.439
					c-0.078,0.02-0.159,0.038-0.24,0.064c-0.016,0.005-0.029,0.037-0.043,0.055c0.017,0.007,0.033,0.021,0.049,0.019
					c0.162-0.025,0.323-0.051,0.483-0.081c0.018-0.002,0.034-0.026,0.051-0.039c-0.017-0.013-0.034-0.035-0.051-0.035
					C82.376,40.424,82.295,40.433,82.209,40.439z M80.062,43.642c-0.009-0.004-0.019-0.008-0.027-0.013
					c-0.01,0.027-0.027,0.054-0.026,0.08c0.006,0.233,0.013,0.466,0.023,0.699c0,0.022,0.021,0.041,0.032,0.061
					c0.007-0.024,0.021-0.051,0.021-0.075c-0.006-0.175-0.017-0.351-0.022-0.526C80.059,43.793,80.062,43.718,80.062,43.642z"/>
				<path fill-rule="evenodd" clip-rule="evenodd" fill="#4859A8" d="M83.09,43.579c0.017,0.623-0.317,1.154-0.765,1.222
					c-0.423,0.063-0.778-0.384-0.794-1c-0.016-0.61,0.318-1.14,0.762-1.206C82.718,42.531,83.074,42.97,83.09,43.579z M82.336,44.5
					c0.316-0.051,0.563-0.458,0.547-0.899c-0.015-0.437-0.285-0.758-0.596-0.713c-0.311,0.045-0.563,0.458-0.55,0.9
					C81.75,44.232,82.02,44.552,82.336,44.5z"/>
				<path fill-rule="evenodd" clip-rule="evenodd" fill="#4859A8" d="M83.729,45.924c-0.01-0.266-0.154-0.38-0.274-0.52
					c-0.215-0.251-0.434-0.499-0.645-0.739c0.086-0.138,0.171-0.274,0.261-0.419c0.01,0.012,0.028,0.03,0.044,0.051
					c0.213,0.266,0.425,0.532,0.639,0.796c0.146,0.181,0.147,0.18,0.359,0.234c-0.125,0.208-0.244,0.404-0.362,0.602
					C83.744,45.926,83.736,45.924,83.729,45.924z"/>
				<path fill-rule="evenodd" clip-rule="evenodd" fill="#4859A8" d="M81.058,46.372c-0.141-0.168-0.271-0.323-0.401-0.479
					c0.012-0.018,0.014-0.025,0.018-0.026c0.153-0.043,0.244-0.205,0.336-0.364c0.188-0.324,0.378-0.648,0.567-0.973
					c0.013-0.024,0.02-0.055,0.025-0.071c0.104,0.129,0.195,0.24,0.291,0.358c-0.027,0.042-0.058,0.091-0.089,0.139
					c-0.207,0.328-0.412,0.658-0.621,0.983C81.107,46.06,81.083,46.201,81.058,46.372z"/>
				<path fill-rule="evenodd" clip-rule="evenodd" fill="#4859A8" d="M82.468,42.461c-0.129,0.021-0.249,0.04-0.373,0.061
					c-0.005-0.148-0.011-0.296-0.015-0.444c-0.008-0.366-0.013-0.732-0.026-1.097c-0.002-0.068-0.031-0.134-0.051-0.198
					c-0.011-0.037-0.03-0.069-0.053-0.121c0.186-0.03,0.357-0.058,0.528-0.087c0.003,0.017,0.007,0.024,0.006,0.027
					c-0.11,0.231-0.078,0.473-0.066,0.715c0.018,0.367,0.036,0.734,0.053,1.101C82.472,42.435,82.468,42.453,82.468,42.461z"/>
				<path fill-rule="evenodd" clip-rule="evenodd" fill="#4859A8" d="M81.555,43.15c-0.166-0.207-0.333-0.416-0.5-0.625
					c-0.055-0.068-0.112-0.134-0.165-0.205c-0.098-0.134-0.204-0.246-0.375-0.239c0.12-0.231,0.239-0.425,0.381-0.629
					c0.023,0.333,0.208,0.451,0.348,0.62c0.174,0.211,0.357,0.409,0.536,0.612c0.015,0.017,0.027,0.036,0.037,0.047
					C81.731,42.87,81.646,43.005,81.555,43.15z"/>
				<path fill-rule="evenodd" clip-rule="evenodd" fill="#4859A8" d="M83.042,42.936c-0.104-0.127-0.192-0.237-0.288-0.354
					c0.009-0.016,0.023-0.042,0.038-0.066c0.194-0.307,0.388-0.613,0.582-0.92c0.14-0.225,0.14-0.226,0.221-0.564
					c0.135,0.161,0.267,0.315,0.397,0.471c-0.001,0.01-0.001,0.019-0.003,0.028c-0.193,0.034-0.287,0.25-0.396,0.435
					c-0.175,0.295-0.348,0.594-0.521,0.893C83.057,42.883,83.048,42.918,83.042,42.936z"/>
				<path fill-rule="evenodd" clip-rule="evenodd" fill="#4859A8" d="M82.521,44.857c0.011,0.342,0.023,0.681,0.034,1.022
					c0.005,0.167,0,0.337,0.013,0.502c0.005,0.081,0.039,0.155,0.063,0.23c0.01,0.032,0.026,0.059,0.047,0.103
					c-0.187,0.03-0.361,0.059-0.537,0.088c0.026-0.102,0.068-0.193,0.069-0.281c0.003-0.247-0.007-0.493-0.017-0.738
					c-0.01-0.276-0.024-0.553-0.036-0.83c0-0.014,0.003-0.03,0.003-0.038C82.285,44.896,82.407,44.875,82.521,44.857z"/>
				<path fill-rule="evenodd" clip-rule="evenodd" fill="#4859A8" d="M81.451,43.557c0.006,0.188,0.012,0.356,0.018,0.537
					c-0.048,0.007-0.092,0.017-0.137,0.022c-0.302,0.04-0.604,0.074-0.907,0.119c-0.06,0.009-0.12,0.053-0.178,0.088
					c-0.034,0.021-0.062,0.057-0.105,0.097c-0.008-0.259-0.017-0.505-0.025-0.766c0.024,0.014,0.044,0.021,0.06,0.036
					c0.071,0.064,0.15,0.074,0.234,0.058c0.323-0.06,0.646-0.12,0.97-0.179C81.405,43.564,81.43,43.56,81.451,43.557z"/>
				<path fill-rule="evenodd" clip-rule="evenodd" fill="#4859A8" d="M84.498,43.707c-0.026-0.017-0.043-0.023-0.057-0.035
					c-0.072-0.066-0.153-0.078-0.24-0.062c-0.321,0.06-0.642,0.12-0.963,0.179c-0.025,0.005-0.051,0.008-0.072,0.012
					c-0.006-0.182-0.012-0.353-0.018-0.527c0.054-0.008,0.109-0.019,0.164-0.026c0.251-0.034,0.501-0.071,0.752-0.1
					c0.143-0.016,0.281-0.046,0.405-0.221C84.5,43.193,84.503,43.439,84.498,43.707z"/>
				<path fill-rule="evenodd" clip-rule="evenodd" fill="#4859A8" d="M83.891,46.095c0.019-0.031,0.035-0.064,0.056-0.093
					c0.451-0.658,0.707-1.429,0.749-2.316c0.076-1.626-0.689-3.028-1.8-3.313c-1.357-0.349-2.717,1.052-2.94,3.032
					c-0.019,0.167-0.025,0.337-0.028,0.504c-0.001,0.165,0.01,0.328,0.015,0.48c-0.058-0.344-0.039-0.935,0.067-1.418
					c0.286-1.301,0.887-2.177,1.813-2.555c1.287-0.524,2.542,0.486,2.833,2.285c0.201,1.24-0.053,2.354-0.705,3.321
					c-0.019,0.027-0.042,0.049-0.062,0.073L83.891,46.095z"/>
				<path fill-rule="evenodd" clip-rule="evenodd" fill="#4859A8" d="M83.617,40.93c0.015,0,0.041-0.013,0.052,0
					c0.13,0.15,0.259,0.304,0.386,0.46c0.01,0.013,0.002,0.053,0.003,0.061C83.913,41.279,83.77,41.109,83.617,40.93z"/>
				<path fill-rule="evenodd" clip-rule="evenodd" fill="#4859A8" d="M84.539,43.302c-0.003-0.115-0.008-0.23-0.01-0.346
					c0-0.021,0.012-0.044,0.018-0.065c0.011,0.017,0.032,0.033,0.033,0.052c0.01,0.243,0.017,0.486,0.023,0.729
					c0,0.018-0.017,0.038-0.025,0.057c-0.008-0.02-0.023-0.039-0.024-0.06c-0.006-0.122-0.009-0.243-0.013-0.365
					C84.54,43.302,84.54,43.302,84.539,43.302z"/>
				<path fill-rule="evenodd" clip-rule="evenodd" fill="#4859A8" d="M83.776,46.025c0.138-0.228,0.267-0.439,0.399-0.656
					c0,0.01,0.01,0.048,0,0.065c-0.114,0.193-0.23,0.385-0.348,0.573C83.817,46.023,83.791,46.02,83.776,46.025z"/>
				<path fill-rule="evenodd" clip-rule="evenodd" fill="#4859A8" d="M80.451,42.066c0-0.051-0.008-0.089,0.002-0.106
					c0.114-0.194,0.23-0.385,0.348-0.575c0.009-0.014,0.032-0.01,0.048-0.014c-0.001,0.019,0.002,0.044-0.005,0.056
					C80.719,41.632,80.592,41.836,80.451,42.066z"/>
				<path fill-rule="evenodd" clip-rule="evenodd" fill="#4859A8" d="M81.032,46.467c-0.019,0.001-0.044,0.014-0.054,0.001
					c-0.129-0.148-0.257-0.3-0.383-0.455c-0.009-0.012-0.004-0.047-0.006-0.07c0.013,0.002,0.03-0.004,0.038,0.005
					c0.135,0.163,0.27,0.326,0.403,0.489C81.031,46.448,81.032,46.457,81.032,46.467z"/>
				<path fill-rule="evenodd" clip-rule="evenodd" fill="#4859A8" d="M82.711,46.818c-0.022,0.02-0.044,0.053-0.067,0.058
					c-0.157,0.03-0.314,0.054-0.471,0.079c-0.012,0.001-0.026,0.001-0.037-0.006c-0.01-0.006-0.017-0.022-0.024-0.034
					c0.009-0.011,0.019-0.022,0.028-0.033c0.003-0.002,0.008-0.001,0.013-0.002c0.182-0.029,0.365-0.06,0.547-0.089
					C82.704,46.8,82.708,46.809,82.711,46.818z"/>
				<path fill-rule="evenodd" clip-rule="evenodd" fill="#4859A8" d="M82.209,40.439c0.086-0.006,0.167-0.015,0.249-0.017
					c0.017,0,0.034,0.022,0.051,0.035c-0.017,0.013-0.033,0.037-0.051,0.039c-0.161,0.029-0.321,0.056-0.483,0.081
					c-0.016,0.002-0.032-0.012-0.049-0.019c0.014-0.019,0.027-0.05,0.043-0.055C82.051,40.477,82.132,40.459,82.209,40.439z"/>
				<path fill-rule="evenodd" clip-rule="evenodd" fill="#4859A8" d="M80.062,43.642c0,0.076-0.003,0.151,0,0.226
					c0.006,0.176,0.017,0.351,0.022,0.526c0,0.024-0.013,0.051-0.021,0.075c-0.011-0.02-0.031-0.039-0.032-0.061
					c-0.01-0.233-0.018-0.466-0.023-0.699c-0.001-0.025,0.016-0.053,0.026-0.08C80.044,43.634,80.054,43.638,80.062,43.642z"/>
				<path fill-rule="evenodd" clip-rule="evenodd" fill="#4859A8" d="M83.889,46.094c-0.075,0.097-0.15,0.194-0.225,0.291
					c-0.004-0.006-0.008-0.013-0.012-0.019c0.08-0.09,0.16-0.181,0.239-0.271L83.889,46.094z"/>
				<path fill-rule="evenodd" clip-rule="evenodd" fill="#4859A8" d="M82.336,44.5c-0.316,0.052-0.586-0.268-0.599-0.712
					c-0.014-0.442,0.239-0.855,0.55-0.9c0.312-0.045,0.581,0.276,0.596,0.713C82.899,44.042,82.652,44.449,82.336,44.5z
					 M82.559,43.655c-0.007-0.197-0.125-0.336-0.263-0.312c-0.137,0.024-0.241,0.197-0.236,0.39c0.005,0.197,0.122,0.339,0.26,0.318
					C82.458,44.03,82.566,43.852,82.559,43.655z M82.533,43.386c0.021,0.066,0.04,0.134,0.062,0.2
					c0.005,0.014,0.021,0.03,0.032,0.029c0.066-0.007,0.132-0.02,0.202-0.031c-0.013-0.187-0.062-0.328-0.15-0.444
					C82.626,43.227,82.578,43.309,82.533,43.386z M82.066,43.478c-0.055-0.067-0.108-0.134-0.165-0.204
					c-0.072,0.141-0.115,0.296-0.112,0.479c0.068-0.011,0.131-0.019,0.192-0.034c0.014-0.003,0.032-0.028,0.038-0.049
					C82.04,43.602,82.054,43.531,82.066,43.478z M82.83,43.646c-0.08,0.013-0.154,0.025-0.219,0.036
					c-0.022,0.091-0.043,0.172-0.059,0.232c0.056,0.071,0.108,0.137,0.164,0.206C82.791,43.979,82.831,43.825,82.83,43.646z
					 M81.791,43.81c0.013,0.186,0.06,0.331,0.146,0.433c0.058-0.087,0.107-0.163,0.153-0.231c-0.023-0.072-0.042-0.137-0.065-0.199
					c-0.006-0.017-0.024-0.034-0.036-0.033C81.924,43.786,81.861,43.798,81.791,43.81z M82.479,43.335
					c0.052-0.084,0.103-0.166,0.155-0.249c-0.091-0.093-0.198-0.141-0.324-0.125c0.004,0.109,0.007,0.212,0.01,0.307
					C82.379,43.293,82.433,43.316,82.479,43.335z M82.26,42.967c-0.126,0.033-0.23,0.111-0.315,0.239
					c0.058,0.07,0.113,0.136,0.164,0.196c0.055-0.043,0.108-0.084,0.162-0.125C82.267,43.175,82.264,43.073,82.26,42.967z
					 M82.135,44.055c-0.051,0.079-0.103,0.159-0.158,0.243c0.098,0.1,0.204,0.147,0.332,0.134c-0.003-0.109-0.007-0.21-0.01-0.309
					C82.241,44.099,82.185,44.076,82.135,44.055z M82.675,44.188c-0.059-0.071-0.113-0.136-0.164-0.196
					c-0.046,0.034-0.091,0.065-0.135,0.101c-0.012,0.01-0.029,0.033-0.029,0.05c0,0.092,0.005,0.185,0.008,0.282
					C82.487,44.395,82.589,44.313,82.675,44.188z"/>
				<path fill-rule="evenodd" clip-rule="evenodd" fill="#4859A8" d="M82.559,43.655c0.007,0.197-0.101,0.375-0.239,0.397
					c-0.138,0.021-0.254-0.122-0.26-0.318c-0.005-0.193,0.099-0.366,0.236-0.39C82.435,43.318,82.552,43.458,82.559,43.655z"/>
				<path fill-rule="evenodd" clip-rule="evenodd" fill="#4859A8" d="M82.533,43.386c0.045-0.077,0.094-0.159,0.146-0.247
					c0.088,0.116,0.137,0.257,0.15,0.444c-0.069,0.011-0.136,0.024-0.202,0.031c-0.01,0.001-0.027-0.015-0.032-0.029
					C82.572,43.52,82.553,43.452,82.533,43.386z"/>
				<path fill-rule="evenodd" clip-rule="evenodd" fill="#4859A8" d="M82.066,43.478c-0.012,0.053-0.026,0.124-0.046,0.193
					c-0.006,0.021-0.024,0.045-0.038,0.049c-0.062,0.015-0.124,0.023-0.192,0.034c-0.003-0.184,0.04-0.338,0.112-0.479
					C81.958,43.344,82.011,43.411,82.066,43.478z"/>
				<path fill-rule="evenodd" clip-rule="evenodd" fill="#4859A8" d="M82.83,43.646c0.001,0.178-0.04,0.333-0.114,0.474
					c-0.055-0.069-0.107-0.135-0.164-0.206c0.015-0.06,0.036-0.141,0.059-0.232C82.676,43.672,82.75,43.659,82.83,43.646z"/>
				<path fill-rule="evenodd" clip-rule="evenodd" fill="#4859A8" d="M81.791,43.81c0.07-0.012,0.133-0.024,0.198-0.03
					c0.012-0.001,0.03,0.016,0.036,0.033c0.023,0.062,0.042,0.127,0.065,0.199c-0.045,0.068-0.095,0.144-0.153,0.231
					C81.851,44.141,81.804,43.996,81.791,43.81z"/>
				<path fill-rule="evenodd" clip-rule="evenodd" fill="#4859A8" d="M82.479,43.335c-0.046-0.019-0.1-0.042-0.159-0.066
					c-0.003-0.095-0.006-0.198-0.01-0.307c0.126-0.016,0.233,0.032,0.324,0.125C82.582,43.169,82.531,43.251,82.479,43.335z"/>
				<path fill-rule="evenodd" clip-rule="evenodd" fill="#4859A8" d="M82.26,42.967c0.003,0.106,0.007,0.208,0.01,0.31
					c-0.053,0.041-0.106,0.082-0.162,0.125c-0.05-0.061-0.105-0.126-0.164-0.196C82.03,43.078,82.134,43,82.26,42.967z"/>
				<path fill-rule="evenodd" clip-rule="evenodd" fill="#4859A8" d="M82.135,44.055c0.05,0.021,0.106,0.043,0.164,0.068
					c0.003,0.099,0.006,0.2,0.01,0.309c-0.127,0.014-0.233-0.034-0.332-0.134C82.032,44.214,82.084,44.134,82.135,44.055z"/>
				<path fill-rule="evenodd" clip-rule="evenodd" fill="#4859A8" d="M82.675,44.188c-0.086,0.125-0.188,0.208-0.32,0.237
					c-0.003-0.097-0.008-0.19-0.008-0.282c0-0.017,0.017-0.04,0.029-0.05c0.044-0.036,0.089-0.067,0.135-0.101
					C82.562,44.052,82.617,44.117,82.675,44.188z"/>
			</g>
		</g>
		<g id="KyLLOc_1_">
			<g>
				<path fill-rule="evenodd" clip-rule="evenodd" fill="#4859A8" d="M78.312,46.103c0.519,0.111,1.038,0.221,1.573,0.335
					c-0.236,0.117-0.453,0.224-0.694,0.343c0.057,0.052,0.097,0.09,0.137,0.125c0.322,0.285,0.662,0.542,1.063,0.71
					c0.538,0.225,1.055-0.007,1.565-0.444c0.062-0.053,0.118-0.156,0.136-0.237c0.06-0.275,0.124-0.556,0.146-0.828
					c0.042-0.511,0.072-1.021,0.079-1.524c0.016-1.281,0.017-2.557,0.024-3.836c0-0.069-0.002-0.137-0.007-0.206
					c-0.014-0.206-0.076-0.295-0.264-0.292c-0.256,0.004-0.518,0.035-0.778,0.061c-0.111,0.012-0.225,0.04-0.336,0.059
					c-0.137,0.023-0.266,0.076-0.391,0.177c-0.114,0.092-0.198,0.077-0.23-0.048c-0.069-0.266-0.072-0.551-0.008-0.852
					c0.028-0.127,0.114-0.2,0.206-0.155c0.258,0.128,0.532,0.013,0.808-0.107c0.282-0.123,0.562-0.253,0.842-0.378
					c0.118-0.052,0.179-0.145,0.197-0.271c0.016-0.113,0.035-0.228,0.04-0.338c0.002-0.056-0.009-0.12-0.037-0.159
					c-0.076-0.104-0.062-0.229-0.011-0.363c0.073-0.193,0.199-0.344,0.365-0.455c0.018-0.012,0.034-0.026,0.05-0.039
					c0.052-0.013,0.104-0.026,0.154-0.041c0.177,0.026,0.329,0.09,0.417,0.256c0.061,0.115,0.084,0.238,0.003,0.393
					c-0.024,0.046-0.033,0.108-0.029,0.156c0.01,0.118,0.026,0.233,0.049,0.346c0.02,0.096,0.074,0.159,0.177,0.149
					c0.426-0.04,0.852-0.076,1.278-0.127c0.079-0.009,0.166-0.079,0.246-0.127c0.044-0.028,0.082-0.074,0.126-0.106
					c0.121-0.092,0.202-0.076,0.234,0.055c0.062,0.258,0.065,0.534,0.008,0.822c-0.027,0.136-0.108,0.213-0.203,0.182
					c-0.183-0.06-0.374-0.003-0.565,0.068c-0.287,0.108-0.572,0.228-0.857,0.348c-0.062,0.026-0.124,0.069-0.183,0.11
					c-0.11,0.078-0.172,0.187-0.176,0.317c-0.006,0.237-0.014,0.476-0.007,0.709c0.029,1.089,0.057,2.178,0.098,3.263
					c0.024,0.659,0.053,1.318,0.17,1.945c0.025,0.136,0.068,0.264,0.11,0.392c0.032,0.095,0.097,0.156,0.189,0.178
					c0.321,0.071,0.646,0.123,1.005-0.039c0.248-0.112,0.464-0.296,0.667-0.502c0.486-0.494,0.869-1.076,1.278-1.681
					c-0.252,0.005-0.485,0.009-0.722,0.014c0.018-0.015,0.037-0.032,0.055-0.046c0.474-0.349,0.947-0.697,1.421-1.046
					c0.024-0.017,0.049-0.03,0.073-0.045c0,0.049,0.001,0.097,0.001,0.146c-0.005,0.038-0.015,0.077-0.016,0.114
					c-0.023,0.536-0.044,1.07-0.068,1.606c-0.007,0.168-0.025,0.339-0.039,0.509c-0.011,0.005-0.022,0.008-0.033,0.013
					c-0.09-0.3-0.181-0.601-0.271-0.9c-0.036,0.043-0.05,0.078-0.063,0.112c-0.235,0.602-0.48,1.2-0.816,1.765
					c-0.379,0.638-0.851,1.146-1.486,1.435c-0.412,0.187-0.822,0.385-1.234,0.575c-0.242,0.111-0.403,0.305-0.517,0.565
					c-0.07,0.16-0.163,0.312-0.245,0.467c-0.013,0.003-0.026,0.006-0.039,0.01c-0.078-0.102-0.156-0.204-0.233-0.307
					c-0.029-0.038-0.055-0.08-0.082-0.121c-0.084-0.128-0.202-0.199-0.361-0.198c-0.266,0.001-0.531-0.003-0.798,0.007
					c-0.245,0.01-0.497,0.051-0.74,0.051c-0.504-0.002-0.894-0.233-1.223-0.571c-0.293-0.3-0.52-0.662-0.731-1.039
					c-0.017-0.029-0.038-0.057-0.066-0.1c-0.079,0.333-0.152,0.639-0.224,0.945c-0.009,0-0.018,0.001-0.026,0.002
					c-0.007-0.036-0.016-0.069-0.019-0.105c-0.038-0.488-0.075-0.977-0.112-1.464c-0.015-0.192-0.031-0.385-0.047-0.577
					C78.313,46.213,78.312,46.158,78.312,46.103z M82.863,37.722c-0.115,0.027-0.191,0.113-0.191,0.216
					c0,0.105,0.072,0.163,0.171,0.139c0.109-0.027,0.198-0.13,0.2-0.23C83.044,37.746,82.973,37.696,82.863,37.722z"/>
			</g>
		</g>
		<g id="TVClm2_1_">
			<g>
				<path fill-rule="evenodd" clip-rule="evenodd" fill="#4859A8" d="M91.039,50.418c0.851,1.937,1.126,3.546,1.415,5.31
					c0.063,0.387-0.28,1-0.625,1.258c-0.672,0.504-1.45,0.895-2.231,1.221c-5.655,2.361-11.551,3.715-17.674,3.865
					c-4.905,0.121-9.822,0.193-14.719-0.035c-3.73-0.176-6.939-0.525-10.659-0.951c-0.655-0.076-1.39-0.711-1.379-1.316
					c0.004-0.273-0.516-3.182-0.516-3.182s0.891,0.281,2.278,0.158c1.387-0.125,10.185-0.908,15.278-1.363
					c4.175-0.375,8.351-0.734,12.52-1.172c1.492-0.156,2.97-0.48,4.44-0.795c3.012-0.646,6.02-1.312,9.016-2.027
					C89.162,51.154,89.821,50.839,91.039,50.418z"/>
			</g>
		</g>
	</g>
</g>
<g id="Layer_4">
	<g>
		<g id="KyLLOc_3_">
			<g>
				<path fill-rule="evenodd" clip-rule="evenodd" fill="#50B748" d="M63.636,44.346c0.711,0.152,1.421,0.304,2.156,0.46
					c-0.325,0.16-0.621,0.307-0.953,0.47c0.079,0.071,0.134,0.121,0.188,0.171c0.442,0.392,0.907,0.744,1.457,0.974
					c0.737,0.308,1.446-0.01,2.145-0.608c0.085-0.073,0.162-0.215,0.187-0.326c0.083-0.377,0.169-0.762,0.2-1.134
					c0.058-0.7,0.099-1.399,0.107-2.09c0.023-1.754,0.024-3.504,0.034-5.255c0-0.095-0.004-0.189-0.011-0.283
					c-0.017-0.282-0.102-0.403-0.36-0.399c-0.352,0.006-0.71,0.047-1.067,0.083c-0.153,0.015-0.308,0.054-0.462,0.08
					c-0.188,0.033-0.365,0.104-0.536,0.243c-0.156,0.126-0.271,0.106-0.315-0.065c-0.095-0.364-0.101-0.755-0.011-1.167
					c0.038-0.174,0.156-0.275,0.281-0.213c0.354,0.176,0.729,0.018,1.107-0.146c0.385-0.168,0.769-0.348,1.153-0.519
					c0.162-0.071,0.246-0.198,0.27-0.372c0.021-0.154,0.047-0.311,0.054-0.463c0.004-0.077-0.013-0.164-0.051-0.216
					c-0.104-0.143-0.084-0.314-0.014-0.498c0.101-0.266,0.273-0.471,0.5-0.623c0.024-0.016,0.046-0.036,0.069-0.053
					c0.071-0.018,0.142-0.037,0.212-0.055c0.241,0.036,0.45,0.122,0.571,0.351c0.084,0.158,0.115,0.326,0.005,0.539
					c-0.033,0.063-0.045,0.147-0.04,0.214c0.014,0.16,0.036,0.32,0.068,0.474c0.027,0.133,0.101,0.219,0.243,0.205
					c0.583-0.055,1.166-0.104,1.75-0.174c0.108-0.013,0.227-0.107,0.337-0.174c0.061-0.038,0.113-0.101,0.173-0.146
					c0.166-0.125,0.277-0.104,0.32,0.076c0.086,0.354,0.09,0.731,0.012,1.126c-0.037,0.187-0.148,0.292-0.277,0.25
					c-0.25-0.082-0.512-0.004-0.774,0.093c-0.394,0.148-0.785,0.312-1.175,0.477c-0.086,0.036-0.169,0.094-0.25,0.151
					c-0.152,0.106-0.237,0.256-0.242,0.435c-0.008,0.326-0.019,0.652-0.009,0.972c0.039,1.492,0.078,2.984,0.134,4.472
					c0.034,0.902,0.072,1.807,0.233,2.666c0.035,0.186,0.094,0.361,0.151,0.537c0.043,0.131,0.132,0.214,0.26,0.243
					c0.438,0.099,0.884,0.169,1.376-0.053c0.339-0.152,0.636-0.406,0.914-0.688c0.667-0.677,1.19-1.475,1.751-2.304
					c-0.346,0.007-0.666,0.014-0.991,0.021c0.025-0.021,0.05-0.044,0.077-0.063c0.649-0.478,1.297-0.956,1.946-1.435
					c0.033-0.022,0.066-0.041,0.1-0.061c0.001,0.066,0.002,0.133,0.003,0.199c-0.008,0.053-0.021,0.106-0.023,0.158
					c-0.031,0.733-0.059,1.466-0.092,2.201c-0.012,0.231-0.035,0.465-0.053,0.698c-0.016,0.005-0.031,0.012-0.046,0.017
					c-0.124-0.412-0.248-0.823-0.371-1.233c-0.05,0.06-0.068,0.106-0.086,0.153c-0.322,0.825-0.658,1.644-1.119,2.418
					c-0.521,0.875-1.166,1.571-2.037,1.967c-0.565,0.257-1.127,0.529-1.692,0.789c-0.332,0.153-0.553,0.418-0.708,0.774
					c-0.096,0.219-0.222,0.427-0.336,0.64c-0.017,0.004-0.035,0.009-0.052,0.013c-0.106-0.14-0.214-0.279-0.319-0.42
					c-0.04-0.053-0.076-0.109-0.113-0.165c-0.114-0.176-0.277-0.272-0.495-0.272c-0.364,0.003-0.727-0.003-1.093,0.011
					c-0.337,0.013-0.681,0.071-1.015,0.07c-0.692-0.002-1.224-0.32-1.676-0.782c-0.401-0.411-0.712-0.907-1.002-1.423
					c-0.023-0.041-0.051-0.078-0.091-0.136c-0.107,0.455-0.207,0.875-0.306,1.294c-0.012,0.002-0.024,0.003-0.036,0.004
					c-0.009-0.048-0.021-0.094-0.025-0.144c-0.052-0.668-0.102-1.338-0.153-2.007c-0.02-0.263-0.043-0.527-0.064-0.791
					C63.637,44.498,63.636,44.422,63.636,44.346z M69.874,32.861c-0.157,0.038-0.261,0.155-0.262,0.297
					c-0.001,0.143,0.099,0.223,0.234,0.189c0.149-0.037,0.271-0.177,0.273-0.315C70.121,32.895,70.023,32.826,69.874,32.861z"/>
			</g>
		</g>
		<g>
			<path fill="none" d="M20.628,58.929c1.901-0.169,13.959-1.242,20.937-1.867c5.721-0.513,11.445-1.006,17.157-1.605
				c2.043-0.214,4.069-0.659,6.084-1.091c4.126-0.885,8.248-1.797,12.354-2.777c1.345-0.321,2.248-0.752,3.917-1.329
				c0.001,0.002,0.002,0.006,0.003,0.008c-0.812-2.513-0.812-5.057-0.574-7.658c0.043-0.463,0.32-0.938,0.591-1.34
				c0.927-1.374,2.068-2.631,2.817-4.092c1.176-2.292,0.795-4.486-0.919-6.484c-2.97-3.461-6.539-5.882-11.096-6.681
				c-3.063-0.537-6.147-0.532-9.186,0.019c-9.138,1.655-17.992,4.31-26.556,7.904c-9.39,3.94-17.487,9.681-23.983,17.56
				c-1.187,1.44-2.224,3.085-2.957,4.796c-1.161,2.708,1.506,5.78,4.429,5.27c1.271-0.223,2.525-0.551,3.86-0.848
				C17.506,58.714,18.727,59.099,20.628,58.929z"/>
			<path fill="none" d="M20.099,64.878c-0.273-0.033-0.556-0.137-0.818-0.289C19.481,64.744,19.745,64.845,20.099,64.878z"/>
			<path fill="none" d="M93.361,64.488c-0.763-0.846-1.599-1.703-2.569-2.271c-1.937-1.137-3.975-2.111-6-3.09
				c-0.811-0.392-1.573-0.631-1.797-1.71c0.006,0.04,0.012,0.08,0.019,0.12c0.087,0.53-0.384,1.371-0.856,1.725
				c-0.92,0.691-1.987,1.227-3.057,1.672c-7.749,3.234-15.83,5.09-24.221,5.297c-6.721,0.166-13.459,0.266-20.169-0.049
				c-4.955-0.232-9.239-0.689-14.141-1.25c0.191,0.086,0.386,0.275,0.553,0.42c0.734,0.619,1.43,1.287,2.177,1.889
				c7.495,6.037,15.554,10.684,25.431,11.754c8.124,0.881,16.173,1.355,24.214-0.402c5.92-1.295,11.676-3.104,16.914-6.229
				c1.343-0.803,2.586-1.881,3.625-3.055C94.855,67.763,94.744,66.019,93.361,64.488z"/>
			<path fill="#50B748" d="M88.255,15.143C78.49,5.378,65.508,0,51.699,0c-13.81,0-26.792,5.378-36.557,15.143
				C5.377,24.907,0,37.89,0,51.699c0,13.81,5.377,26.792,15.142,36.556c9.764,9.764,22.747,15.143,36.557,15.143
				c13.809,0,26.792-5.379,36.557-15.143c9.764-9.764,15.142-22.746,15.142-36.556C103.397,37.89,98.02,24.907,88.255,15.143z
				 M13.646,59.562c-2.923,0.51-5.59-2.562-4.429-5.27c0.733-1.71,1.77-3.356,2.957-4.796c6.496-7.878,14.593-13.619,23.983-17.56
				c8.564-3.594,17.417-6.249,26.556-7.904c3.039-0.551,6.123-0.555,9.186-0.019c4.557,0.799,8.125,3.22,11.096,6.681
				c1.714,1.999,2.096,4.192,0.919,6.484c-0.75,1.461-1.89,2.718-2.817,4.092c-0.271,0.401-0.548,0.876-0.591,1.34
				c-0.238,2.601-0.238,5.145,0.574,7.658c-0.001-0.002-0.002-0.006-0.003-0.008c-1.668,0.577-2.572,1.008-3.917,1.329
				c-4.105,0.98-8.228,1.892-12.354,2.777c-2.015,0.432-4.041,0.876-6.084,1.091c-5.712,0.599-11.436,1.092-17.157,1.605
				c-6.978,0.625-19.036,1.698-20.937,1.867c-1.901,0.17-3.122-0.215-3.122-0.215C16.171,59.011,14.917,59.339,13.646,59.562z
				 M20.099,64.878c-0.354-0.033-0.618-0.135-0.818-0.289C19.543,64.742,19.826,64.845,20.099,64.878z M89.86,72.363
				c-5.238,3.125-10.994,4.934-16.914,6.229c-8.041,1.758-16.09,1.283-24.214,0.402c-9.877-1.07-17.936-5.717-25.431-11.754
				c-0.748-0.602-1.443-1.27-2.177-1.889c-0.167-0.145-0.362-0.334-0.553-0.42c4.901,0.561,9.186,1.018,14.141,1.25
				c6.71,0.314,13.449,0.215,20.169,0.049c8.392-0.207,16.473-2.062,24.221-5.297c1.07-0.445,2.137-0.98,3.057-1.672
				c0.472-0.354,0.943-1.195,0.856-1.725c-0.007-0.04-0.013-0.08-0.019-0.12c0.224,1.079,0.986,1.318,1.797,1.71
				c2.025,0.979,4.062,1.953,6,3.09c0.97,0.568,1.806,1.426,2.569,2.271c1.382,1.531,1.494,3.275,0.124,4.82
				C92.446,70.482,91.203,71.56,89.86,72.363z"/>
		</g>
	</g>
</g>
<g id="Layer_6">
	<line fill="none" x1="133.838" y1="25.417" x2="103.397" y2="25.417"/>
</g>
</svg>
