<?xml version="1.0" encoding="utf-8"?>
<!-- Generator: Adobe Illustrator 16.0.4, SVG Export Plug-In . SVG Version: 6.00 Build 0)  -->
<!DOCTYPE svg PUBLIC "-//W3C//DTD SVG 1.1//EN" "http://www.w3.org/Graphics/SVG/1.1/DTD/svg11.dtd">
<svg version="1.1" id="Layer_1" xmlns="http://www.w3.org/2000/svg" xmlns:xlink="http://www.w3.org/1999/xlink" x="0px" y="0px"
	 width="600px" height="500px" viewBox="0 0 600 500" enable-background="new 0 0 600 500" xml:space="preserve">
<g>
	<rect fill="none" width="600" height="500"/>
	<path fill="#4CB848" d="M445.631,62.871H153.642c-23.03,0-41.771,18.741-41.771,41.771v291.989
		c0,22.916,18.741,41.656,41.771,41.656h291.989c22.916,0,41.656-18.74,41.656-41.656V104.642
		C487.287,81.612,468.547,62.871,445.631,62.871z M143.092,139.88h17.46v-21.804c0-16.561,13.926-30.481,30.535-30.481h21.804
		v26.143h-17.46c-5.239,0-8.73,3.487-8.73,8.73v17.413h26.191v26.196h-26.191v61.027h-26.148v-61.027h-17.46L143.092,139.88
		L143.092,139.88z M354.502,410.071h-28.408v-85.165h28.408V410.071z M340.33,308.841c-9.475,0-17.047-7.579-17.047-16.987
		c0-9.476,7.572-17.049,17.047-17.049c9.41,0,16.988,7.573,16.988,17.049C357.318,301.262,349.74,308.841,340.33,308.841z
		 M349.174,226.418c-11.193,0-20.333-9.139-20.333-20.333c0-11.228,9.14-20.334,20.333-20.334c5.613,0,10.543,2.088,14.035,5.614
		l49.771-29.474c-0.687-1.402-0.687-3.491-0.687-4.894c0-1.404,0-3.492,0.687-4.895l-49.771-28.754
		c-3.492,3.491-8.422,5.613-14.035,5.613c-11.912,0-21.02-9.105-21.02-21.052c0-11.912,9.104-21.018,21.02-21.018
		c11.945,0,21.053,9.105,21.053,21.018c0,1.403,0,3.526-0.72,4.929l49.771,28.72c3.523-3.492,8.422-5.58,14.035-5.58
		c11.911,0,20.334,8.386,20.334,20.333c0,11.913-9.105,21.018-21.021,21.018c-5.614,0-10.542-2.121-14.035-5.613l-49.771,29.439
		c0.687,2.123,0.687,3.517,0.687,4.93C369.507,217.279,360.4,226.418,349.174,226.418z M458.55,410.071H430.15v-50.153
		c0-7.573-6.604-14.177-14.181-14.177c-7.573,0-14.178,6.604-14.178,14.177v50.153h-28.408v-85.165h28.408v11.359
		c4.711-7.566,15.102-13.254,23.645-13.254c17.968,0,33.112,15.158,33.112,33.118L458.55,410.071L458.55,410.071z M136.366,340.786
		c0.385-23.006,21.536-43.155,44.542-42.388c11.023-0.508,21.385,4.285,29.828,11.021c-3.603,4.094-7.333,8.038-11.322,11.729
		c-10.149-7.017-24.584-9.021-34.732-0.916c-14.521,10.043-15.181,33.753-1.215,44.562c13.582,12.324,39.253,6.206,43.006-12.665
		c-8.509-0.128-17.036,0-25.543-0.274c-0.021-5.075-0.042-10.15-0.021-15.228c14.223-0.042,28.443-0.062,42.687,0.045
		c0.853,11.938-0.725,24.646-8.06,34.521c-11.109,15.628-33.412,20.188-50.81,13.497
		C147.262,378.037,134.895,359.593,136.366,340.786 M251.333,323.812c4.223,0,8.444,0,12.688,0
		c0.021,4.243,0.042,8.509,0.084,12.752c4.243,0.043,8.508,0.043,12.75,0.085c0,4.223,0,8.464,0,12.688
		c-4.242,0.042-8.486,0.063-12.75,0.106c-0.043,4.264-0.063,8.508-0.084,12.752c-4.244,0-8.465,0-12.708,0
		c-0.043-4.244-0.043-8.488-0.085-12.73c-4.243-0.043-8.508-0.086-12.75-0.128c0-4.224,0-8.443,0-12.688
		c4.243-0.042,8.485-0.063,12.75-0.085C251.249,332.3,251.292,328.058,251.333,323.812"/>
</g>
</svg>
